<svg width="120" height="120" viewBox="0 0 120 120" fill="none" xmlns="http://www.w3.org/2000/svg">
<g clip-path="url(#clip0_893_2)">
<rect width="120" height="120" fill="white"/>
<rect width="120" height="120" fill="#EC5B37" fill-opacity="0.3"/>
<path d="M39.44 79V45.288H27.4V39.8H57.528V45.288H45.488V79H39.44ZM75.9293 79.784C71.1506 79.784 67.3613 78.44 64.5613 75.752C61.7613 73.0267 60.3613 69.1067 60.3613 63.992V54.808C60.3613 49.6933 61.7613 45.792 64.5613 43.104C67.3613 40.3787 71.1506 39.016 75.9293 39.016C80.6333 39.016 84.2546 40.3227 86.7933 42.936C89.3693 45.5493 90.6573 49.1147 90.6573 53.632V53.968H84.6653V53.464C84.6653 50.8133 83.9373 48.648 82.4813 46.968C81.0626 45.288 78.8786 44.448 75.9293 44.448C72.9426 44.448 70.6093 45.3627 68.9293 47.192C67.2493 48.984 66.4093 51.4853 66.4093 54.696V64.104C66.4093 67.2773 67.2493 69.7787 68.9293 71.608C70.6093 73.4373 72.9426 74.352 75.9293 74.352C78.8786 74.352 81.0626 73.512 82.4813 71.832C83.9373 70.1147 84.6653 67.9493 84.6653 65.336V64.384H90.6573V65.168C90.6573 69.6853 89.3693 73.2507 86.7933 75.864C84.2546 78.4773 80.6333 79.784 75.9293 79.784Z" fill="#EC5B37"/>
</g>
<defs>
<clipPath id="clip0_893_2">
<rect width="120" height="120" fill="white"/>
</clipPath>
</defs>
</svg>
