<?xml version="1.0" encoding="UTF-8" standalone="no"?>
<!-- Generator: Gravit.io -->
<svg xmlns="http://www.w3.org/2000/svg" xmlns:xlink="http://www.w3.org/1999/xlink" style="isolation:isolate" viewBox="0 0 32 32" width="32" height="32"><defs><clipPath id="_clipPath_ILf7lb5oPmc4vsCZAxQJfbRcZTIz6Dn5"><rect width="32" height="32"/></clipPath></defs><g clip-path="url(#_clipPath_ILf7lb5oPmc4vsCZAxQJfbRcZTIz6Dn5)"><g><g><path d="M 5.5 2 L 26.5 2 C 28.432 2 30 3.568 30 5.5 L 30 26.5 C 30 28.432 28.432 30 26.5 30 L 5.5 30 C 3.568 30 2 28.432 2 26.5 L 2 5.5 C 2 3.568 3.568 2 5.5 2 Z" style="stroke:none;fill:#4B76F1;stroke-miterlimit:10;"/><g><path d=" M 19.536 13.879 L 21.657 16 L 16 21.657 L 13.879 19.536 L 13.879 19.536 L 12.462 20.952 L 16 24.49 L 24.49 16 L 20.952 12.462 L 19.536 13.879 Z  M 18.121 12.464 L 16 10.343 L 10.343 16 L 10.343 16 L 10.343 16 L 12.464 18.121 L 11.048 19.538 L 7.51 16 L 7.51 16 L 7.51 16 L 16 7.51 L 19.538 11.048 L 18.121 12.464 Z  M 13.17 16 L 16 13.17 L 18.83 16 L 16 18.83 L 13.17 16 L 13.17 16 L 13.17 16 L 13.17 16 Z  M 4.686 16 L 16 4.686 L 27.314 16 L 16 27.314 L 4.686 16 L 4.686 16 L 4.686 16 L 4.686 16 Z " fill-rule="evenodd" fill="rgb(255,255,255)"/></g></g></g></g></svg>